<svg width="42" height="42" viewBox="0 0 42 42" fill="none" xmlns="http://www.w3.org/2000/svg">
<path d="M21 9C26.1717 9 31.1316 11.0545 34.7886 14.7114C38.4455 18.3684 40.5 23.3283 40.5 28.5V28.5C40.5 29.2956 40.1839 30.0587 39.6213 30.6213C39.0587 31.1839 38.2956 31.5 37.5 31.5H4.5C3.70435 31.5 2.94129 31.1839 2.37868 30.6213C1.81607 30.0587 1.5 29.2956 1.5 28.5C1.5 23.3283 3.55446 18.3684 7.21142 14.7114C10.8684 11.0545 15.8283 9 21 9V9Z" stroke="#C67C4E" stroke-width="3" stroke-linecap="round" stroke-linejoin="round"/>
<path d="M21 9V4.5" stroke="#C67C4E" stroke-width="3" stroke-linecap="round" stroke-linejoin="round"/>
<path d="M1.5 37.5H40.5" stroke="#C67C4E" stroke-width="3" stroke-linecap="round" stroke-linejoin="round"/>
<rect width="42" height="42" stroke="#C67C4E"/>
</svg>
