<svg width="45" height="45" class="appetizer" viewBox="0 0 45 45" fill="none" xmlns="http://www.w3.org/2000/svg">
<path d="M34.7999 21.1651C39.3286 21.1651 42.9998 16.9291 42.9998 11.7037C42.9998 6.47823 39.3286 2.24219 34.7999 2.24219C30.2713 2.24219 26.6001 6.47823 26.6001 11.7037C26.6001 16.9291 30.2713 21.1651 34.7999 21.1651Z" stroke="#C67C4E" stroke-width="3" stroke-linecap="round" stroke-linejoin="round"/>
<path d="M34.7998 21.1641V43.2408" stroke="#C67C4E" stroke-width="3" stroke-linecap="round" stroke-linejoin="round"/>
<path d="M10.5415 2.24219V43.2419" stroke="#C67C4E" stroke-width="3" stroke-linecap="round" stroke-linejoin="round"/>
<path d="M19.083 2.24219V10.1267C19.083 11.1622 18.862 12.1874 18.4328 13.144C18.0035 14.1006 17.3744 14.9698 16.5812 15.702C15.7881 16.4341 14.8465 17.0149 13.8102 17.4111C12.7739 17.8074 11.6632 18.0113 10.5415 18.0113V18.0113C8.27615 18.0113 6.10358 17.1806 4.50174 15.702C2.8999 14.2233 2 12.2179 2 10.1267V2.24219" stroke="#C67C4E" stroke-width="3" stroke-linecap="round" stroke-linejoin="round"/>
</svg>
