<svg width="42" height="42" viewBox="0 0 42 42" fill="none" xmlns="http://www.w3.org/2000/svg">
<path d="M39.1508 6.62286C36.5344 5.13287 33.6565 4.15925 30.6733 3.75484C30.2217 2.8853 29.5931 2.11995 28.8281 1.50803C28.0042 0.852579 27.0421 0.393315 26.0145 0.165025C24.9869 -0.0632645 23.9209 -0.0545931 22.8972 0.190383C20.7092 0.742766 18.587 1.5295 16.5675 2.53694C15.1339 1.85499 13.5326 1.60616 11.9597 1.82092C10.3869 2.03569 8.9108 2.70473 7.71225 3.74609C7.07037 4.2973 6.42498 4.873 5.78834 5.46621C5.12022 6.0944 4.43985 6.80835 3.76123 7.58353C2.91093 8.55613 2.3041 9.71716 1.99086 10.9707C1.67762 12.2243 1.66696 13.5344 1.95975 14.7929C2.09492 15.387 2.29492 15.9644 2.55616 16.5148C1.54237 18.5496 0.749615 20.6873 0.191496 22.8913C-0.0544113 23.9154 -0.0636055 24.9822 0.164613 26.0104C0.392831 27.0387 0.85245 28.0013 1.5085 28.8251C2.1265 29.5984 2.90147 30.2318 3.78222 30.6834C4.18749 33.6637 5.16 36.5387 6.6471 39.1527C7.22408 40.1897 8.11847 41.0141 9.1987 41.5045C10.2789 41.995 11.488 42.1256 12.648 41.8773C13.8479 41.6395 14.9395 41.0218 15.7616 40.1156C16.5836 39.2093 17.0924 38.0625 17.2129 36.8447C17.5394 34.5919 18.1311 32.3858 18.9759 30.2722C18.9759 30.2722 19.9291 29.6842 20.3646 29.329C21.4132 28.4491 22.1575 27.2605 22.4914 25.9325C23.3 25.6647 24.0353 25.2124 24.6392 24.6114C25.2274 24.0125 25.6723 23.288 25.9405 22.4923C27.2632 22.1566 28.4467 21.4127 29.3231 20.3662C29.6729 19.9305 30.2675 18.9751 30.2675 18.9751C32.3755 18.1073 34.5854 17.5116 36.8438 17.2025C38.0611 17.082 39.2073 16.5729 40.1132 15.7505C41.019 14.928 41.6363 13.8359 41.874 12.6354C42.1263 11.4735 41.9976 10.2612 41.5071 9.17815C41.0166 8.09514 40.1903 7.1991 39.1508 6.62286ZM13.7271 36.4544C13.685 36.9371 13.4869 37.3928 13.1628 37.7527C12.8387 38.1127 12.4063 38.3572 11.9309 38.4493C11.4934 38.5489 11.0354 38.5018 10.6273 38.3152C10.2193 38.1286 9.88392 37.813 9.6729 37.4169C8.62104 35.5738 7.86723 33.5758 7.43941 31.4971H14.2606C14.4512 31.4971 14.6366 31.4586 14.8255 31.4481C14.3253 32.9932 13.7271 36.4474 13.7271 36.4544ZM18.1521 26.6097C17.054 27.5055 15.6809 27.9956 14.2641 27.9974H7.01265C6.48061 27.9985 5.95532 27.8782 5.47676 27.6456C4.99819 27.4131 4.57896 27.0743 4.25096 26.6552C3.92379 26.2451 3.69436 25.7658 3.5801 25.2537C3.46585 24.7415 3.46977 24.2101 3.59158 23.6997C3.94173 22.287 4.40978 20.9062 4.99079 19.5718C5.53073 19.9946 6.12192 20.3473 6.7503 20.6217L18.4285 25.7383C18.5369 25.7891 18.6523 25.8083 18.7625 25.8503C18.606 26.1379 18.3993 26.3951 18.1521 26.6097ZM22.1486 22.1441C21.8564 22.4406 21.4795 22.6391 21.0698 22.7125C20.6601 22.7858 20.2378 22.7303 19.8609 22.5536L8.15475 17.4247C7.45679 17.1188 6.84148 16.6513 6.3595 16.0608C5.87753 15.4703 5.54269 14.7736 5.38257 14.0283C5.21282 13.3057 5.21723 12.5532 5.39543 11.8327C5.57364 11.1123 5.92053 10.4445 6.40749 9.8846C7.01265 9.19515 7.61081 8.5652 8.19673 8.014C8.78265 7.46279 9.38956 6.92034 9.99297 6.40413C10.5498 5.91925 11.2131 5.57254 11.929 5.39215C12.6449 5.21176 13.3932 5.20276 14.1132 5.36589C14.8332 5.52901 15.5046 5.85967 16.0729 6.33102C16.6413 6.80237 17.0906 7.40114 17.3843 8.07874L22.5684 19.7853C22.7418 20.1755 22.7945 20.6086 22.7197 21.029C22.6449 21.4494 22.446 21.8378 22.1486 22.1441ZM28.0008 14.254C27.9996 15.6714 27.5105 17.0451 26.6156 18.1439C26.4111 18.3808 26.1681 18.5814 25.8967 18.7371C25.8513 18.6146 25.818 18.4886 25.7656 18.3679L20.5832 6.66311C20.3213 6.06884 19.9914 5.50689 19.6003 4.98849C20.9274 4.40867 22.3005 3.94043 23.7052 3.58861C24.2153 3.46648 24.7466 3.46242 25.2585 3.57674C25.7704 3.69106 26.2495 3.92074 26.6593 4.2483C27.0792 4.57719 27.4183 4.99775 27.6508 5.47784C27.8833 5.95794 28.003 6.48485 28.0008 7.01833V14.254ZM38.4477 11.9197C38.3556 12.3953 38.1112 12.828 37.7515 13.1522C37.3917 13.4765 36.9362 13.6747 36.4538 13.7168C36.4538 13.7168 32.9942 14.3152 31.4499 14.8192C31.4621 14.6302 31.4988 14.4447 31.4988 14.254V7.42954C33.5766 7.85757 35.5736 8.61175 37.4157 9.66411C37.8104 9.87574 38.1249 10.2108 38.3112 10.6181C38.4976 11.0254 38.5455 11.4826 38.4477 11.9197Z" fill="#C67C4E"/>
</svg>
